<?xml version="1.0" standalone="no"?>
<!DOCTYPE svg PUBLIC "-//W3C//DTD SVG 20010904//EN"
 "http://www.w3.org/TR/2001/REC-SVG-20010904/DTD/svg10.dtd">
<svg version="1.0" xmlns="http://www.w3.org/2000/svg"
 width="866.000000pt" height="597.000000pt" viewBox="0 0 866.000000 597.000000"
 preserveAspectRatio="xMidYMid meet">

<g transform="translate(0.000000,597.000000) scale(0.100000,-0.100000)"
fill="#000000" stroke="none">
<path d="M1115 5259 c-501 -391 -911 -718 -912 -728 -2 -9 -48 -494 -103
-1079 l-100 -1063 756 -884 c454 -531 763 -885 774 -885 9 0 1503 -139 3320
-310 1818 -170 3305 -308 3306 -307 7 7 502 5323 496 5328 -4 3 -1483 146
-3287 318 -1804 171 -3293 314 -3310 316 -27 4 -117 -63 -940 -706z m4200 275
c1766 -169 3213 -310 3216 -313 6 -5 -468 -5092 -474 -5097 -8 -6 -6485 621
-6495 629 -12 9 -1402 1621 -1439 1668 -10 12 8 223 87 1020 55 552 100 1014
100 1026 0 16 53 62 213 186 116 90 512 396 879 680 437 337 673 514 685 512
10 -2 1463 -142 3228 -311z"/>
<path d="M1332 4823 c-55 -548 -135 -1454 -129 -1460 10 -9 992 -109 1167
-119 287 -15 543 46 659 157 97 93 124 241 68 362 -37 81 -125 165 -224 215
l-79 39 64 28 c79 34 167 118 202 190 21 43 25 65 25 151 0 99 -1 102 -35 153
-79 116 -270 213 -521 265 -41 8 -304 38 -584 65 -281 28 -531 53 -556 57
l-46 5 -11 -108z m921 -375 c113 -24 144 -129 54 -184 -27 -16 -51 -19 -149
-19 -64 0 -120 3 -123 7 -4 4 -4 51 1 105 9 92 10 98 34 104 29 8 115 2 183
-13z m-108 -539 c191 -24 279 -92 240 -186 -23 -54 -86 -77 -210 -77 -55 0
-122 3 -149 7 l-48 9 7 121 c4 67 9 125 12 130 6 10 42 9 148 -4z"/>
<path d="M3306 4708 c-9 -43 -137 -1498 -134 -1520 3 -22 10 -23 703 -90 385
-37 716 -67 736 -68 l36 0 17 193 c10 105 18 199 19 207 2 12 -55 20 -323 47
-179 17 -331 32 -338 32 -9 1 -11 19 -6 74 4 39 9 75 13 78 3 4 137 -6 296
-21 160 -16 293 -26 296 -22 8 8 44 391 38 396 -2 2 -137 16 -299 31 -162 15
-296 28 -297 29 -2 1 0 32 4 69 6 64 7 67 32 67 14 0 161 -13 326 -30 165 -16
303 -26 306 -22 7 8 49 425 43 431 -3 3 -1409 140 -1446 141 -10 0 -20 -10
-22 -22z"/>
<path d="M5504 4506 c-348 -57 -604 -247 -630 -466 -13 -112 45 -247 138 -323
98 -79 201 -121 488 -197 87 -23 171 -51 191 -65 36 -23 53 -54 40 -72 -12
-19 -66 -41 -117 -48 -136 -18 -470 85 -583 181 -18 15 -36 23 -40 18 -9 -9
-252 -369 -265 -392 -22 -37 416 -181 679 -222 596 -94 1081 88 1134 425 19
123 -21 246 -110 340 -69 74 -133 103 -369 170 -228 65 -322 99 -357 129 -22
19 -24 26 -15 43 17 31 64 43 167 43 120 0 222 -26 350 -90 79 -39 102 -47
112 -37 7 7 64 86 127 177 82 118 111 168 104 177 -19 23 -193 101 -306 137
-62 20 -166 46 -230 57 -149 26 -395 34 -508 15z"/>
<path d="M6630 4398 c-1 -7 -11 -121 -24 -253 -13 -132 -23 -241 -22 -242 1
-1 96 -11 210 -22 115 -12 211 -23 214 -26 3 -3 -13 -229 -37 -503 -23 -273
-41 -509 -41 -524 0 -25 4 -27 53 -33 118 -13 674 -65 702 -65 l31 0 49 518
c26 284 51 521 56 526 4 4 101 -1 215 -12 115 -11 210 -19 211 -18 4 4 50 501
47 505 -3 3 -1615 160 -1651 161 -7 0 -13 -6 -13 -12z"/>
<path d="M577 3653 c-64 -22 -144 -94 -173 -158 -36 -77 -34 -173 7 -253 32
-65 66 -99 133 -135 59 -32 193 -31 253 1 109 57 165 147 167 261 1 204 -194
348 -387 284z m168 -112 c75 -34 125 -122 110 -194 -13 -59 -52 -114 -98 -136
-125 -60 -266 20 -269 152 -1 55 8 84 39 126 49 65 142 87 218 52z"/>
<path d="M1500 3118 c-1 -7 -34 -359 -74 -783 -40 -424 -72 -772 -70 -774 4
-5 1041 -108 1169 -116 129 -8 305 7 419 36 195 50 313 153 336 294 26 160
-68 313 -250 404 -81 40 -82 41 -53 52 169 63 262 180 271 340 4 66 1 84 -20
130 -60 130 -215 223 -480 288 -102 25 -219 40 -680 86 -307 30 -560 55 -563
55 -3 0 -5 -6 -5 -12z m932 -471 c54 -23 78 -51 78 -93 0 -77 -100 -123 -233
-109 -105 11 -100 6 -93 94 4 42 9 89 13 105 l5 29 97 -6 c53 -2 113 -12 133
-20z m-71 -541 c125 -27 184 -71 184 -138 0 -32 -7 -45 -32 -68 -18 -16 -49
-34 -70 -39 -63 -18 -288 -9 -308 11 -3 3 -3 60 1 127 l7 121 76 0 c42 0 106
-7 142 -14z"/>
<path d="M3808 2101 c-208 -411 -378 -752 -378 -757 0 -5 143 -22 318 -38 174
-15 326 -30 338 -33 19 -4 25 6 54 87 18 51 39 94 46 97 7 3 115 -5 239 -16
124 -12 229 -21 234 -21 5 0 16 -42 26 -92 10 -51 22 -97 26 -103 9 -9 679
-74 679 -65 0 8 -483 1614 -487 1620 -3 3 -666 69 -708 70 -5 0 -180 -337
-387 -749z m706 173 c3 -9 6 -31 6 -50 0 -18 14 -112 30 -209 17 -97 30 -183
30 -193 0 -16 -8 -17 -122 -6 -68 7 -124 12 -125 13 -2 1 126 380 152 449 6
17 22 15 29 -4z"/>
<path d="M5390 2744 c0 -4 146 -220 325 -482 299 -437 325 -478 325 -516 -1
-22 -14 -171 -29 -331 -16 -159 -27 -292 -25 -294 6 -7 769 -78 775 -72 4 3
20 155 37 336 l31 330 414 412 414 412 -41 6 c-74 10 -786 75 -820 75 -30 0
-40 -11 -166 -185 -74 -101 -138 -184 -142 -185 -5 0 -55 94 -113 210 -84 167
-109 211 -127 214 -27 6 -803 76 -835 76 -13 0 -23 -3 -23 -6z"/>
<path d="M7728 2484 c-35 -18 -61 -68 -61 -114 0 -129 178 -166 238 -50 55
107 -70 223 -177 164z m133 -40 c18 -20 24 -36 23 -71 -1 -61 -37 -98 -95 -98
-75 0 -113 80 -74 155 17 33 27 38 81 39 31 1 46 -5 65 -25z"/>
<path d="M7746 2413 c-9 -56 -7 -101 4 -108 5 -3 12 7 16 22 3 15 7 33 9 38 1
6 10 -7 20 -27 11 -21 25 -38 32 -38 16 0 16 5 2 31 -8 16 -7 25 5 38 37 40 7
81 -58 81 -19 0 -25 -7 -30 -37z m72 -12 c-2 -10 -11 -15 -23 -13 -26 5 -29 8
-22 26 8 20 49 9 45 -13z"/>
</g>
</svg>
